# xmcd CD database file generated by OrangeCD 5.2
#
# Track frame offsets:
#	167
#	19582
#	30750
#	41795
#	54452
#	65277
#	74857
#	88437
#	98355
#	111842
#	121412
#	131502
#	143340
#	153997
#	166702
#	180327
#	190370
#
# Disc length: 2895 seconds
#
# Revision: 1
# Processed by: cddbd v1.5.1PL0 Copyright (c) Steve Scherf et al.
# Submitted via: OrangeCD 5.2
#
DISCID=da0b4d11
DTITLE=Johnny Winter - Living The Blues
DYEAR=1990
DGENRE=Blues
TTITLE0=Coming Up Fast
TTITLE1=Living In The Blues
TTITLE2=Suicide Won't Satisfy
TTITLE3=Easy Loving Girl
TTITLE4=Gone For Bad
TTITLE5=Reeling And Rocking
TTITLE6=Tramp
TTITLE7=Ice Cube
TTITLE8=Birds Can't Row Boats
TTITLE9=Blue Suede Shoes
TTITLE10=Out Of Sight
TTITLE11=You'll Be The Death Of Me
TTITLE12=Night Ride
TTITLE13=Leaving Blues
TTITLE14=Ease My Pain
TTITLE15=Broke And Lonely
TTITLE16=Goin' Down Slow
EXTD=
EXTT0=
EXTT1=
EXTT2=
EXTT3=
EXTT4=
EXTT5=
EXTT6=
EXTT7=
EXTT8=
EXTT9=
EXTT10=
EXTT11=
EXTT12=
EXTT13=
EXTT14=
EXTT15=
EXTT16=
PLAYORDER=
